<svg width="323" height="47" viewBox="0 0 323 47" fill="none" xmlns="http://www.w3.org/2000/svg">
<path d="M51.9297 37H37.3926V11.3008H51.9297V14.8516H41.5938V21.8477H51.2793V25.3633H41.5938V33.4316H51.9297V37ZM73.041 37H68.875V20.793H63.5137C63.1855 24.9648 62.7402 28.2227 62.1777 30.5664C61.627 32.9102 60.9004 34.6211 59.998 35.6992C59.1074 36.7773 57.9473 37.3164 56.5176 37.3164C55.6152 37.3164 54.8594 37.1875 54.25 36.9297V33.6953C54.6836 33.8594 55.1172 33.9414 55.5508 33.9414C56.7461 33.9414 57.6836 32.5996 58.3633 29.916C59.0547 27.2207 59.5938 23.1016 59.9805 17.5586H73.041V37ZM96.209 27.2441C96.209 30.4199 95.3945 32.8984 93.7656 34.6797C92.1367 36.4609 89.8691 37.3516 86.9629 37.3516C85.1465 37.3516 83.541 36.9414 82.1465 36.1211C80.752 35.3008 79.6797 34.123 78.9297 32.5879C78.1797 31.0527 77.8047 29.2715 77.8047 27.2441C77.8047 24.0918 78.6133 21.6309 80.2305 19.8613C81.8477 18.0918 84.127 17.207 87.0684 17.207C89.8809 17.207 92.1074 18.1152 93.748 19.9316C95.3887 21.7363 96.209 24.1738 96.209 27.2441ZM82.0586 27.2441C82.0586 31.7324 83.7168 33.9766 87.0332 33.9766C90.3145 33.9766 91.9551 31.7324 91.9551 27.2441C91.9551 22.8027 90.3027 20.582 86.998 20.582C85.2637 20.582 84.0039 21.1562 83.2188 22.3047C82.4453 23.4531 82.0586 25.0996 82.0586 27.2441ZM117.848 22.5332C117.848 24.8301 116.506 26.2188 113.822 26.6992V26.8398C115.322 27.0156 116.471 27.4902 117.268 28.2637C118.064 29.0371 118.463 30.0391 118.463 31.2695C118.463 33.1094 117.76 34.5273 116.354 35.5234C114.959 36.5078 112.926 37 110.254 37H100.973V17.5586H110.219C115.305 17.5586 117.848 19.2168 117.848 22.5332ZM114.227 31.0234C114.227 30.0859 113.863 29.4238 113.137 29.0371C112.41 28.6387 111.32 28.4395 109.867 28.4395H105.104V33.9414H109.973C112.809 33.9414 114.227 32.9688 114.227 31.0234ZM113.717 22.8848C113.717 22.1113 113.412 21.5547 112.803 21.2148C112.205 20.8633 111.309 20.6875 110.113 20.6875H105.104V25.3633H109.498C110.881 25.3633 111.93 25.1875 112.645 24.8359C113.359 24.4727 113.717 23.8223 113.717 22.8848ZM126.865 25.3281H130.803C133.521 25.3281 135.531 25.7969 136.832 26.7344C138.133 27.6719 138.783 29.0781 138.783 30.9531C138.783 32.957 138.104 34.4688 136.744 35.4883C135.396 36.4961 133.416 37 130.803 37H122.734V17.5586H126.865V25.3281ZM134.688 31.0586C134.688 30.0859 134.324 29.4062 133.598 29.0195C132.883 28.6328 131.852 28.4395 130.504 28.4395H126.865V33.9414H129.977C131.641 33.9414 132.842 33.707 133.58 33.2383C134.318 32.7695 134.688 32.043 134.688 31.0586ZM145.99 37H141.842V17.5586H145.99V37ZM160.404 37.3516C157.381 37.3516 155.014 36.4727 153.303 34.7148C151.604 32.9453 150.754 30.5137 150.754 27.4199C150.754 24.2441 151.545 21.748 153.127 19.9316C154.709 18.1152 156.883 17.207 159.648 17.207C162.215 17.207 164.242 17.9863 165.73 19.5449C167.219 21.1035 167.963 23.248 167.963 25.9785V28.2109H155.008C155.066 30.0977 155.576 31.5508 156.537 32.5703C157.498 33.5781 158.852 34.082 160.598 34.082C161.746 34.082 162.812 33.9766 163.797 33.7656C164.793 33.543 165.859 33.1797 166.996 32.6758V36.0332C165.988 36.5137 164.969 36.8535 163.938 37.0527C162.906 37.252 161.729 37.3516 160.404 37.3516ZM159.648 20.3359C158.336 20.3359 157.281 20.752 156.484 21.584C155.699 22.416 155.23 23.6289 155.078 25.2227H163.902C163.879 23.6172 163.492 22.4043 162.742 21.584C161.992 20.752 160.961 20.3359 159.648 20.3359ZM202.715 37H198.496V25.416H186.648V37H182.447V11.3008H186.648V21.8125H198.496V11.3008H202.715V37ZM221.207 37L220.381 34.293H220.24C219.303 35.4766 218.359 36.2852 217.41 36.7188C216.461 37.1406 215.242 37.3516 213.754 37.3516C211.844 37.3516 210.35 36.8359 209.271 35.8047C208.205 34.7734 207.672 33.3145 207.672 31.4277C207.672 29.4238 208.416 27.9121 209.904 26.8926C211.393 25.873 213.66 25.3164 216.707 25.2227L220.064 25.1172V24.0801C220.064 22.8379 219.771 21.9121 219.186 21.3027C218.611 20.6816 217.715 20.3711 216.496 20.3711C215.5 20.3711 214.545 20.5176 213.631 20.8105C212.717 21.1035 211.838 21.4492 210.994 21.8477L209.658 18.8945C210.713 18.3438 211.867 17.9277 213.121 17.6465C214.375 17.3535 215.559 17.207 216.672 17.207C219.145 17.207 221.008 17.7461 222.262 18.8242C223.527 19.9023 224.16 21.5957 224.16 23.9043V37H221.207ZM215.055 34.1875C216.555 34.1875 217.756 33.7715 218.658 32.9395C219.572 32.0957 220.029 30.918 220.029 29.4062V27.7188L217.533 27.8242C215.588 27.8945 214.17 28.2227 213.279 28.8086C212.4 29.3828 211.961 30.2676 211.961 31.4629C211.961 32.3301 212.219 33.0039 212.734 33.4844C213.25 33.9531 214.023 34.1875 215.055 34.1875ZM228.801 25.3281C228.801 20.9922 229.533 17.6582 230.998 15.3262C232.475 12.9941 234.818 11.4941 238.029 10.8262C240.455 10.334 243.25 9.85352 246.414 9.38477L246.994 13.0234C243.15 13.6094 240.338 14.0664 238.557 14.3945C236.717 14.7344 235.387 15.4902 234.566 16.6621C233.758 17.834 233.289 19.5977 233.16 21.9531H233.424C234.092 20.9805 234.965 20.2305 236.043 19.7031C237.121 19.1641 238.275 18.8945 239.506 18.8945C241.896 18.8945 243.76 19.6504 245.096 21.1621C246.432 22.6738 247.1 24.7949 247.1 27.5254C247.1 30.6543 246.285 33.0742 244.656 34.7852C243.039 36.4961 240.795 37.3516 237.924 37.3516C235.076 37.3516 232.844 36.2969 231.227 34.1875C229.609 32.0781 228.801 29.125 228.801 25.3281ZM238.205 33.9766C241.275 33.9766 242.811 31.9609 242.811 27.9297C242.811 24.0391 241.422 22.0938 238.645 22.0938C237.883 22.0938 237.145 22.2578 236.43 22.5859C235.715 22.9141 235.053 23.3477 234.443 23.8867C233.846 24.4258 233.383 24.9824 233.055 25.5566C233.055 28.3223 233.494 30.4199 234.373 31.8496C235.252 33.2676 236.529 33.9766 238.205 33.9766ZM269.107 27.2441C269.107 30.4199 268.293 32.8984 266.664 34.6797C265.035 36.4609 262.768 37.3516 259.861 37.3516C258.045 37.3516 256.439 36.9414 255.045 36.1211C253.65 35.3008 252.578 34.123 251.828 32.5879C251.078 31.0527 250.703 29.2715 250.703 27.2441C250.703 24.0918 251.512 21.6309 253.129 19.8613C254.746 18.0918 257.025 17.207 259.967 17.207C262.779 17.207 265.006 18.1152 266.646 19.9316C268.287 21.7363 269.107 24.1738 269.107 27.2441ZM254.957 27.2441C254.957 31.7324 256.615 33.9766 259.932 33.9766C263.213 33.9766 264.854 31.7324 264.854 27.2441C264.854 22.8027 263.201 20.582 259.896 20.582C258.162 20.582 256.902 21.1562 256.117 22.3047C255.344 23.4531 254.957 25.0996 254.957 27.2441ZM283.732 37.3516C281.271 37.3516 279.361 36.4668 278.002 34.6973H277.756C277.92 36.3379 278.002 37.334 278.002 37.6855V45.6484H273.871V17.5586H277.211C277.305 17.9219 277.498 18.7891 277.791 20.1602H278.002C279.291 18.1914 281.225 17.207 283.803 17.207C286.229 17.207 288.115 18.0859 289.463 19.8438C290.822 21.6016 291.502 24.0684 291.502 27.2441C291.502 30.4199 290.811 32.8984 289.428 34.6797C288.057 36.4609 286.158 37.3516 283.732 37.3516ZM282.73 20.582C281.09 20.582 279.889 21.0625 279.127 22.0234C278.377 22.9844 278.002 24.5195 278.002 26.6289V27.2441C278.002 29.6113 278.377 31.3281 279.127 32.3945C279.877 33.4492 281.102 33.9766 282.801 33.9766C284.23 33.9766 285.332 33.3906 286.105 32.2188C286.879 31.0469 287.266 29.377 287.266 27.209C287.266 25.0293 286.879 23.3828 286.105 22.2695C285.344 21.1445 284.219 20.582 282.73 20.582ZM300.432 25.3281H304.369C307.088 25.3281 309.098 25.7969 310.398 26.7344C311.699 27.6719 312.35 29.0781 312.35 30.9531C312.35 32.957 311.67 34.4688 310.311 35.4883C308.963 36.4961 306.982 37 304.369 37H296.301V17.5586H300.432V25.3281ZM308.254 31.0586C308.254 30.0859 307.891 29.4062 307.164 29.0195C306.449 28.6328 305.418 28.4395 304.07 28.4395H300.432V33.9414H303.543C305.207 33.9414 306.408 33.707 307.146 33.2383C307.885 32.7695 308.254 32.043 308.254 31.0586ZM319.557 37H315.408V17.5586H319.557V37Z" fill="#384647"/>
<path opacity="0.3" fill-rule="evenodd" clip-rule="evenodd" d="M2.32908 39.7384C3.37551 35.6698 5.99701 31.3211 9.13808 28.5294C15.1167 29.124 20.4037 26.4348 23.334 24.4792C20.5698 26.6598 16.377 30.8582 15.0943 36.7287C11.1629 38.8508 6.83813 40.0125 2.32861 39.7381L2.32908 39.7384Z" fill="#88DD9B"/>
<path opacity="0.6" fill-rule="evenodd" clip-rule="evenodd" d="M2.3291 7.17482C2.3291 7.17482 9.17837 6.72845 15.0947 10.1842C16.3772 16.0546 20.5699 20.255 23.3345 22.4336C20.4056 20.4761 15.1186 17.7869 9.13857 18.3888C4.01789 13.8227 2.32957 7.17487 2.32957 7.17487L2.3291 7.17482Z" fill="#88DD9B"/>
<path fill-rule="evenodd" clip-rule="evenodd" d="M0 23.4656C7.04878 17.6354 16.0439 17.9956 23.1438 23.4656C16.1465 29.2555 7.09983 28.9357 0 23.4656Z" fill="#88DD9B"/>
<path fill-rule="evenodd" clip-rule="evenodd" d="M17.0792 46.8325C13.8228 38.6734 16.8047 29.5064 24.2319 24.8213C27.4882 32.9748 24.5118 42.1474 17.0792 46.8325Z" fill="#88DD9B"/>
<path fill-rule="evenodd" clip-rule="evenodd" d="M16.942 0C24.3748 4.68699 27.3496 13.8577 24.1004 22.0112C16.6676 17.3316 13.6876 8.15914 16.942 0Z" fill="#88DD9B"/>
</svg>
